<svg id="Group_6798" data-name="Group 6798" xmlns="http://www.w3.org/2000/svg" xmlns:xlink="http://www.w3.org/1999/xlink" width="18.833" height="17.17" viewBox="0 0 18.833 17.17">
  <defs>
    <clipPath id="clip-path">
      <rect id="Rectangle_5130" data-name="Rectangle 5130" width="18.833" height="17.17" fill="#f88400"/>
    </clipPath>
  </defs>
  <g id="Group_5803" data-name="Group 5803" clip-path="url(#clip-path)">
    <path id="Path_5253" data-name="Path 5253" d="M11.309,11.913a2.89,2.89,0,0,0-.468-.451,1.766,1.766,0,0,0-2.1-.159l-.183.1c-.164.093-.333.189-.5.29a.83.83,0,0,1-.8.057,1.454,1.454,0,0,1-.745-.629L5.9,10.061c-.428-.738-.871-1.5-1.3-2.254a1.3,1.3,0,0,1-.161-.421c-.012-.073-.022-.147-.029-.22-.036-.677.483-1.042.979-1.419a5.008,5.008,0,0,0,.676-.639l.1-.092a1.4,1.4,0,0,0,.325-.85c0-.045,0-.089-.007-.135H6.49a2.574,2.574,0,0,0-.314-1.1c-.1-.187-.2-.379-.29-.565-.1-.206-.211-.419-.323-.625A4.635,4.635,0,0,0,4.512.377,1.2,1.2,0,0,0,2.936.228C2.9.255,2.854.278,2.81.3s-.07.038-.1.059A5.522,5.522,0,0,0,.027,4.774a7.615,7.615,0,0,0,.958,4.34c.879,1.623,1.8,3.165,2.583,4.46A7.707,7.707,0,0,0,5.82,15.961a6.249,6.249,0,0,0,3.548,1.208,5.964,5.964,0,0,0,3.048-.893,1.028,1.028,0,0,0,.551-.9,2.331,2.331,0,0,0-.083-.707,8.182,8.182,0,0,0-1.575-2.755M11.5,15.65a4.569,4.569,0,0,1-2.213.523,5.318,5.318,0,0,1-3.545-1.556,7.886,7.886,0,0,1-1.5-1.832l-.072-.121c-.718-1.216-1.461-2.474-2.16-3.728A7.273,7.273,0,0,1,1,5.107,4.612,4.612,0,0,1,2.966,1.369a3.9,3.9,0,0,1,.58-.334.186.186,0,0,1,.079-.015.175.175,0,0,1,.088.02,1.5,1.5,0,0,1,.349.291A7.494,7.494,0,0,1,5.438,3.888a1.467,1.467,0,0,1,.055.352.627.627,0,0,1-.33.638c-.169.094-.338.193-.5.289l-.142.083a2.13,2.13,0,0,0-.8,3.03c.376.654.761,1.316,1.134,1.957q.41.706.82,1.412a2.334,2.334,0,0,0,1.258,1.039,1.828,1.828,0,0,0,1.65-.138c.094-.057.191-.111.286-.164.13-.072.265-.147.392-.23a.71.71,0,0,1,.937.069,3.257,3.257,0,0,1,.494.506,8.367,8.367,0,0,1,1.155,1.948c.248.63.238.657-.34.972" transform="translate(0 0.001)" fill="#f88400"/>
    <path id="Path_5254" data-name="Path 5254" d="M124.237,58.628q0-1.2,0-2.4A1.2,1.2,0,0,0,123.3,55a2.388,2.388,0,0,0-.585-.057c-2.991,0-6.031,0-8.972,0h-1.07a6.9,6.9,0,0,1,.211,1.005h9.787l-.021.014-2.934,2.3-2.835,2.227a.631.631,0,0,1-.947,0l-3.641-2.862c-.223.229-.486.474-.73.694,1.125.882,2.329,1.829,3.756,2.952a1.566,1.566,0,0,0,2.168.012q1.451-1.137,2.9-2.277l2.861-2.248v6.814c0,.217,0,.435,0,.652s-.074.289-.277.312a1.956,1.956,0,0,1-.224.009h-3.73c-.076,0-.154,0-.231.006a.5.5,0,0,0,.03.99l.688,0c1.14,0,2.319.008,3.479-.008a1.288,1.288,0,0,0,1.267-1.323c-.014-1.862-.012-3.755-.01-5.586" transform="translate(-105.414 -51.914)" fill="#f88400"/>
  </g>
</svg>
