<svg id="Group_46193" data-name="Group 46193" xmlns="http://www.w3.org/2000/svg" xmlns:xlink="http://www.w3.org/1999/xlink" width="56.022" height="63.611" viewBox="0 0 56.022 63.611">
  <defs>
    <clipPath id="clip-path">
      <rect id="Rectangle_18698" data-name="Rectangle 18698" width="56.022" height="63.611" fill="none"/>
    </clipPath>
  </defs>
  <g id="Group_43643" data-name="Group 43643" transform="translate(0 0)" clip-path="url(#clip-path)">
    <path id="Path_5912" data-name="Path 5912" d="M27.461,63.611c-1.218-.458-2.459-.871-3.651-1.38Q6.138,54.675,1.17,37.285A32.79,32.79,0,0,1,0,28.306q-.013-8.048,0-16.1c0-1.28.361-1.774,1.649-2.269Q14.276,5.084,26.9.22a2.885,2.885,0,0,1,2.2,0q12.681,4.9,25.374,9.764A2.077,2.077,0,0,1,56,12.086c-.009,5.469.062,10.938-.019,16.406-.165,11.117-4.726,20.429-13.726,27.837A39.639,39.639,0,0,1,29.2,63.341c-.226.074-.44.179-.659.27ZM4.043,22.337c0,1.989-.089,3.983.024,5.966a38.162,38.162,0,0,0,.708,6.661C7.6,46.827,15.17,55.037,27.4,59.544a1.944,1.944,0,0,0,1.193.006C42.763,54.645,51.914,42.4,51.954,28.3c.014-4.869-.007-9.738.017-14.607a.822.822,0,0,0-.655-.9Q39.92,8.44,28.53,4.067a1.65,1.65,0,0,0-1.06,0Q16.04,8.433,4.624,12.829a.744.744,0,0,0-.595.806c.025,2.9.013,5.8.013,8.7" transform="translate(0 0)" fill="#a3aabe"/>
    <path id="Path_5913" data-name="Path 5913" d="M47.939,61.765l9.2-8.5c.175-.161.345-.326.525-.482a2.1,2.1,0,0,1,2.893-.019q3.074,2.787,6.093,5.623A1.768,1.768,0,0,1,66.5,61.2q-5.016,4.641-10.042,9.272Q53.026,73.637,49.6,76.8a2.175,2.175,0,0,1-3.333-.009Q40.551,71.52,34.84,66.245a1.823,1.823,0,0,1,.01-3.075q2.83-2.617,5.665-5.228a2.165,2.165,0,0,1,3.283,0c1.366,1.254,2.726,2.513,4.141,3.818m11.173-5.026c-.2.174-.377.326-.549.485L49.8,65.31c-1.4,1.29-2.332,1.294-3.714.018l-3.81-3.519-3.207,2.94,8.822,8.15L62.259,59.64l-3.148-2.9" transform="translate(-22.098 -33.925)" fill="#f88400"/>
  </g>
</svg>
