<svg id="Group_46194" data-name="Group 46194" xmlns="http://www.w3.org/2000/svg" xmlns:xlink="http://www.w3.org/1999/xlink" width="58.662" height="60.191" viewBox="0 0 58.662 60.191">
  <defs>
    <clipPath id="clip-path">
      <rect id="Rectangle_18696" data-name="Rectangle 18696" width="58.662" height="60.191" fill="none"/>
    </clipPath>
  </defs>
  <g id="Group_43639" data-name="Group 43639" transform="translate(0)" clip-path="url(#clip-path)">
    <path id="Path_5903" data-name="Path 5903" d="M.07,35.282c0-1.308-.046-2.618.011-3.922a5.92,5.92,0,0,1,2.854-4.894,1.453,1.453,0,0,0,.733-1.313C4.372,13.5,12.517,3.412,23.361.737c15.4-3.8,30.262,7.517,31.631,24.1a2.028,2.028,0,0,0,.968,1.788,5.536,5.536,0,0,1,2.611,4.524q.15,4.065.057,8.139a5.952,5.952,0,0,1-2.875,5.092,1.433,1.433,0,0,0-.674,1.357,27.454,27.454,0,0,1-.345,4.864,8.363,8.363,0,0,1-7.458,6.524c-1.365.1-2.744,0-4.11.091a1.56,1.56,0,0,0-1.082.635A4.365,4.365,0,0,1,38.2,60.161c-1.4.006-2.807.063-4.207,0a4.292,4.292,0,0,1-4.191-3.743,4.415,4.415,0,0,1,2.59-4.813,5.24,5.24,0,0,1,1.727-.342c1.37-.052,2.743-.054,4.114-.02A4.329,4.329,0,0,1,42.1,53.583a1.422,1.422,0,0,0,.989.619c1.149.076,2.305.051,3.458.021a5.872,5.872,0,0,0,5.743-6.171c0-.164-.017-.329,0-.49.13-1.331.05-2.346-1.551-2.83a3.157,3.157,0,0,1-1.979-3.176c-.045-4.089-.067-8.179,0-12.267A3.637,3.637,0,0,1,51.344,25.8c.707-.258.886-.562.8-1.319C51,14.033,44.006,5.845,34.206,3.534,23.093.914,11.422,7.66,7.8,18.881c-.605,1.873-.866,3.868-1.285,5.808-.124.573.048.841.638,1.036a3.93,3.93,0,0,1,2.8,4.136c0,3.533-.038,7.066.017,10.6.029,1.834-.365,3.4-1.984,4.332A4.636,4.636,0,0,1,3,44.448,6.21,6.21,0,0,1,.012,38.913c-.024-1.21,0-2.421,0-3.631H.07m51.474.2h-.01c0,.914,0,1.829,0,2.743,0,.947-.009,1.894.017,2.841s.465,1.35,1.368,1.286a3.1,3.1,0,0,0,2.866-3.064c.092-2.607.073-5.223-.017-7.83a3.123,3.123,0,0,0-2.593-2.926c-1.073-.208-1.619.236-1.627,1.367-.013,1.861,0,3.723,0,5.584m-44.412,0c0-1.892.013-3.785-.006-5.677-.009-.952-.465-1.36-1.356-1.294A3.054,3.054,0,0,0,2.937,31.28c-.106,2.734-.106,5.477-.022,8.213A3.089,3.089,0,0,0,5.4,42.308c1.172.248,1.721-.2,1.731-1.442.014-1.795,0-3.589,0-5.384" transform="translate(0 0)" fill="#a3aabe"/>
    <path id="Path_5904" data-name="Path 5904" d="M51.918,37.467c3.317,0,6.635-.013,9.953,0,4.367.021,7.143,3.249,7.165,8.351q.033,7.684.01,15.369c-.019,4.988-2.828,8.262-7.121,8.315-2.5.032-4.994.041-7.491-.008a2.445,2.445,0,0,0-2.069,1.017C50.829,72.369,49.236,74.16,47.69,76c-1.145,1.366-2.453,2.055-4.046,1.279s-2.139-2.325-2.054-4.25c0-.083,0-.167,0-.25-.018-.956.233-2.107-.139-2.806-.305-.572-1.352-.608-2.071-.876a7.581,7.581,0,0,1-4.673-7.165c-.054-5.663-.065-11.329.017-16.992.06-4.122,2.931-7.373,6.489-7.442s7.134-.015,10.7-.015v-.021M44.807,73.848c.37-.331.541-.453.679-.612,1.821-2.108,3.655-4.2,5.446-6.345A2.753,2.753,0,0,1,53.2,65.753c2.957.028,5.916.033,8.873-.025,2.342-.046,3.739-1.673,3.751-4.375q.038-7.926-.015-15.852c-.017-2.552-1.441-4.248-3.619-4.257q-10.37-.043-20.74.018c-2.091.012-3.492,1.648-3.51,4.1q-.061,8.113-.012,16.226a3.854,3.854,0,0,0,3.3,4.13,9.734,9.734,0,0,0,1.174.047c1.945-.006,2.4.511,2.4,2.773,0,1.686,0,3.371,0,5.312" transform="translate(-22.532 -24.347)" fill="#f88400"/>
    <path id="Path_5905" data-name="Path 5905" d="M60.009,80.757a2.328,2.328,0,1,1-4.653-.014,2.33,2.33,0,1,1,4.653.014" transform="translate(-35.977 -50.881)" fill="#f88400"/>
    <path id="Path_5906" data-name="Path 5906" d="M103.554,80.723a2.379,2.379,0,0,1-2.329,2.432,2.411,2.411,0,0,1-2.294-2.473,2.447,2.447,0,0,1,2.4-2.38,2.36,2.36,0,0,1,2.22,2.421" transform="translate(-64.296 -50.889)" fill="#f88400"/>
    <path id="Path_5907" data-name="Path 5907" d="M81.806,80.681a2.313,2.313,0,1,1-4.617.064,2.31,2.31,0,1,1,4.617-.064" transform="translate(-50.167 -50.901)" fill="#f88400"/>
  </g>
</svg>
