<svg id="Group_46196" data-name="Group 46196" xmlns="http://www.w3.org/2000/svg" xmlns:xlink="http://www.w3.org/1999/xlink" width="55.416" height="68.004" viewBox="0 0 55.416 68.004">
  <defs>
    <clipPath id="clip-path">
      <rect id="Rectangle_18699" data-name="Rectangle 18699" width="55.416" height="68.004" fill="none"/>
    </clipPath>
  </defs>
  <g id="Group_43645" data-name="Group 43645" transform="translate(0)" clip-path="url(#clip-path)">
    <path id="Path_5914" data-name="Path 5914" d="M34.306,69.295c-6.737,0-13.474.022-20.21-.006-3.584-.015-4.071-.453-3.388-2.7,1.1-3.628,2.241-7.252,3.242-10.892.4-1.449,1.283-2.324,3.681-2.2,1.983.1,2.988-.506,2.858-1.869-.136-1.429.64-2.286,3.015-2.252,2.132.03,2.113-.827,1.641-1.874q-4.369-9.686-8.709-19.378c-1.88-4.178-3.725-8.363-5.686-12.524-.811-1.72.371-2.342,2.651-2.5,3.448-.232,6.895-.5,10.353-.635,2.139-.084,3.429-.625,4.188-2.022a71.649,71.649,0,0,1,4.119-6.586A11.506,11.506,0,0,1,34.351,2,11.017,11.017,0,0,1,36.68,3.8a56.717,56.717,0,0,1,4.134,6.581c.787,1.537,2.218,2,4.42,2.086,3.26.13,6.509.382,9.76.6,3.205.218,3.775.783,2.856,2.831C53.248,26.164,48.668,36.427,44,46.671c-.738,1.618-1.283,2.82,2.343,2.864a2.68,2.68,0,0,1,1.855,1.809c.122,1.468.774,2.282,3.138,2.155,2.086-.111,3.034.622,3.408,1.923,1.1,3.83,2.221,7.659,3.445,11.473.579,1.8-.511,2.42-3.075,2.409-6.935-.033-13.87-.011-20.8-.009m-.056-2.268c5.846,0,11.691-.011,17.536.006,1.816.006,2.885-.345,2.444-1.746-.835-2.653-1.661-5.307-2.4-7.972-.343-1.239-1.428-1.563-3.149-1.558-9.511.028-19.022.045-28.533-.008-2.145-.012-3,.62-3.342,1.922-.635,2.41-1.313,4.816-2.118,7.2-.527,1.562.155,2.2,2.619,2.176,5.646-.061,11.294-.019,16.941-.022M51.972,15.968l-.491-.676c-2.487-.231-4.968-.615-7.462-.656-3.17-.053-5.137-.789-6.069-2.942a33.5,33.5,0,0,0-3.089-4.76l-1.011,0A49.14,49.14,0,0,0,30.584,12.1c-.824,1.733-2.375,2.382-4.981,2.474-2.782.1-5.544.446-8.314.684l-.237.6a39.97,39.97,0,0,0,4.436,2.758c3.778,1.765,4.758,3.938,3.16,6.823a17.555,17.555,0,0,0-1.184,4.071l.873.326a33.219,33.219,0,0,0,4.172-1.687,10.936,10.936,0,0,1,11.814.02,30.565,30.565,0,0,0,4.3,1.668l.736-.447A44.027,44.027,0,0,0,43.8,24.44c-.908-2.068-.467-3.674,2.3-5.012,2.1-1.019,3.928-2.3,5.876-3.459M32.213,29.383c-3.181,1.325-5.985,2.407-8.608,3.659a1.514,1.514,0,0,0-.525,1.74c1.881,4.449,3.844,8.884,5.945,13.289.25.523,1.476.838,2.25,1.249.5-.55,1.424-1.1,1.434-1.65.1-5.553.062-11.107.033-16.661a7.512,7.512,0,0,0-.529-1.625M37,29.534c-.48.5-.771.658-.773.82-.053,5.932-.111,11.864-.04,17.8,0,.394,1.163,1.16,1.52,1.1a3.224,3.224,0,0,0,2.042-1.105c2.1-4.461,4.091-8.948,6.01-13.447a1.372,1.372,0,0,0-.452-1.583c-2.68-1.269-5.512-2.395-8.307-3.576M34.347,53.472v.008c2.661,0,5.328.065,7.979-.039a8.346,8.346,0,0,0,2.342-.815c-.7-.321-1.39-.912-2.1-.921q-8.272-.111-16.549.007c-.645.008-1.274.555-1.911.851a5.859,5.859,0,0,0,1.963.868c2.751.1,5.516.041,8.275.041M49.228,27.045l3.453-7.757c-5.922,1.613-7.174,4.493-3.453,7.757m-29.6.132c3.554-3.794,2.147-6.711-3.482-7.745l3.482,7.745" transform="translate(-6.788 -1.3)" fill="#a3aabe"/>
    <path id="Path_5915" data-name="Path 5915" d="M31.654,7.154,27.9,3.4A1.991,1.991,0,0,1,30.711.581l3.758,3.758a1.991,1.991,0,1,1-2.815,2.815" transform="translate(-17.753 0)" fill="#f88400"/>
    <path id="Path_5916" data-name="Path 5916" d="M112.13,4.339,115.888.581A1.991,1.991,0,0,1,118.7,3.4l-3.758,3.758a1.991,1.991,0,0,1-2.815-2.815" transform="translate(-72.498 0)" fill="#f88400"/>
    <path id="Path_5917" data-name="Path 5917" d="M139.6,76.613l3.758,3.758a1.991,1.991,0,0,1-2.815,2.815l-3.758-3.758a1.991,1.991,0,0,1,2.815-2.815" transform="translate(-88.52 -49.415)" fill="#f88400"/>
    <path id="Path_5918" data-name="Path 5918" d="M7.154,79.428,3.4,83.185A1.991,1.991,0,0,1,.581,80.37l3.758-3.758a1.991,1.991,0,0,1,2.815,2.815" transform="translate(0 -49.414)" fill="#f88400"/>
    <path id="Path_5919" data-name="Path 5919" d="M66.935,169.929H47.275a1.877,1.877,0,1,1,0-3.754h19.66a1.877,1.877,0,1,1,0,3.754" transform="translate(-29.505 -108)" fill="#f88400"/>
    <path id="Path_5920" data-name="Path 5920" d="M70.466,35.538c.179-1.251-5.542.089-6.882-1.43s-1.112-3.983-2.929-4.019v0h-.038v0c-1.817.036-1.6,2.51-2.929,4.019s-7.061.179-6.882,1.43,5.274,3.486,5.274,3.486-2.95,5.1-2.034,5.363c.886.259,6.239-2.629,6.59-2.82.351.19,5.7,3.079,6.59,2.82.916-.268-2.034-5.363-2.034-5.363s5.1-2.235,5.274-3.486" transform="translate(-33.017 -19.553)" fill="#f88400"/>
  </g>
</svg>
