<svg id="Group_46195" data-name="Group 46195" xmlns="http://www.w3.org/2000/svg" xmlns:xlink="http://www.w3.org/1999/xlink" width="52.518" height="66.606" viewBox="0 0 52.518 66.606">
  <defs>
    <clipPath id="clip-path">
      <rect id="Rectangle_18697" data-name="Rectangle 18697" width="52.518" height="66.606" fill="none"/>
    </clipPath>
  </defs>
  <g id="Group_43641" data-name="Group 43641" clip-path="url(#clip-path)">
    <path id="Path_5908" data-name="Path 5908" d="M44.231,134.708a7.406,7.406,0,0,0,4.357.011l3.427,8.451-6.54-1.845-1.486-.419-.844,1.293-3.631,5.566-3.769-9.3a7.445,7.445,0,0,0,1.954.259,7.161,7.161,0,0,0,6.532-4.022m-27.068.047a7.412,7.412,0,0,0,4.488.007,7.163,7.163,0,0,0,6.517,3.991,7.472,7.472,0,0,0,1.83-.226l-3.747,9.24L22.62,142.2l-.843-1.293-1.486.419-6.54,1.845,3.413-8.416m-1.078-2.932-5.893,14.533,10.669-3.009,5.827,8.932L32.883,137l6.2,15.277,5.827-8.932,10.669,3.009-5.893-14.532a5.286,5.286,0,0,1-3.248,1.117h0a5.35,5.35,0,0,1-1.784-.307,1.814,1.814,0,0,0-.607-.105,1.707,1.707,0,0,0-1.6,1.024l-.021.05A5.051,5.051,0,0,1,37.7,136.63a5.193,5.193,0,0,1-3.549-1.375l-.006-.006a1.792,1.792,0,0,0-2.4,0l-.029.027a5.19,5.19,0,0,1-3.545,1.371,5.05,5.05,0,0,1-4.725-3.026l-.011-.026a1.7,1.7,0,0,0-1.593-1.018,1.8,1.8,0,0,0-.6.1l-.035.012a5.357,5.357,0,0,1-1.788.308,5.281,5.281,0,0,1-3.33-1.183" transform="translate(-6.624 -85.674)" fill="#f88400"/>
    <path id="Path_5909" data-name="Path 5909" d="M51.293,24.7l-.09-.07a3.062,3.062,0,0,1-.5-4.432l.054-.065a3.127,3.127,0,0,0-1.747-5.05l-.086-.023a3.175,3.175,0,0,1-2.371-3.865l.019-.068a3.272,3.272,0,0,0-3.785-3.948l-.054.008a3.371,3.371,0,0,1-3.845-2.629l-.007-.038a3.437,3.437,0,0,0-5.17-2.161l-.029.018a3.522,3.522,0,0,1-4.656-.932l0-.007a3.51,3.51,0,0,0-5.66,0l-.024.035a3.521,3.521,0,0,1-4.656.931,3.438,3.438,0,0,0-5.17,2.162l-.013.07A3.37,3.37,0,0,1,9.657,7.261l-.02,0a3.272,3.272,0,0,0-3.785,3.948l.027.1A3.174,3.174,0,0,1,3.509,15.17l-.053.014a3.127,3.127,0,0,0-1.747,5.05l.076.09a3.063,3.063,0,0,1-.5,4.432l-.064.05a3.093,3.093,0,0,0,.591,5.28l.094.046a3.1,3.1,0,0,1,1.464,4.241l-.037.071a3.19,3.19,0,0,0,2.828,4.6l.071,0a3.27,3.27,0,0,1,3.177,3.32l0,.056a3.36,3.36,0,0,0,4.578,3.123l.038-.014a3.46,3.46,0,0,1,4.346,1.821l.009.021a3.491,3.491,0,0,0,5.536,1.105l.026-.023a3.543,3.543,0,0,1,4.761,0h0a3.491,3.491,0,0,0,5.537-1.105l.021-.051a3.46,3.46,0,0,1,4.346-1.821l.006,0a3.36,3.36,0,0,0,4.577-3.123l0-.089a3.269,3.269,0,0,1,3.176-3.32l.037,0a3.19,3.19,0,0,0,2.828-4.6l-.053-.1a3.1,3.1,0,0,1,1.464-4.241l.063-.031a3.093,3.093,0,0,0,.591-5.28M26.211,43.85c-11.287,0-20.437-8.61-20.437-19.232S14.924,5.387,26.211,5.387,46.649,14,46.649,24.618,37.5,43.85,26.211,43.85" transform="translate(0 0)" fill="#a3aabe"/>
    <path id="Path_5910" data-name="Path 5910" d="M42.311,25.279a15.647,15.647,0,0,1,13.576,7.554,13.629,13.629,0,0,1,1.862,6.849c0,7.942-6.926,14.4-15.438,14.4A15.628,15.628,0,0,1,28.7,46.467a13.627,13.627,0,0,1-1.824-6.784c0-7.942,6.926-14.4,15.438-14.4m0-2.1c-9.671,0-17.538,7.4-17.538,16.5a15.643,15.643,0,0,0,2.1,7.832,17.736,17.736,0,0,0,15.434,8.672c9.671,0,17.538-7.4,17.538-16.5A15.647,15.647,0,0,0,57.7,31.777a17.741,17.741,0,0,0-15.391-8.6" transform="translate(-16.1 -15.064)" fill="#a3aabe"/>
    <path id="Path_5911" data-name="Path 5911" d="M51.184,59.663a1.752,1.752,0,0,1,2.372,0L57.629,63.5l7.224-7a1.753,1.753,0,0,1,2.373,0h0a1.514,1.514,0,0,1,0,2.232l-9.6,9.237-2.373-2.232,0,0L51.184,61.9a1.513,1.513,0,0,1,0-2.232" transform="translate(-32.946 -36.416)" fill="#f88400"/>
  </g>
</svg>
