<svg xmlns="http://www.w3.org/2000/svg" xmlns:xlink="http://www.w3.org/1999/xlink" width="117.691" height="42" viewBox="0 0 117.691 42">
  <defs>
    <clipPath id="clip-path">
      <rect id="Rectangle_1568" data-name="Rectangle 1568" width="117.691" height="42" fill="none"/>
    </clipPath>
  </defs>
  <g id="Group_43819" data-name="Group 43819" transform="translate(0 0)">
    <g id="Group_3215" data-name="Group 3215" transform="translate(0 0)" clip-path="url(#clip-path)">
      <path id="Path_4663" data-name="Path 4663" d="M67.659,5.944l.025-.023-.038.009Z" transform="translate(21.89 1.916)" fill="#003cf9"/>
      <path id="Path_4664" data-name="Path 4664" d="M93.183,9.475A19.041,19.041,0,0,0,73.673.562a21.551,21.551,0,0,0-4.991,1.53l-.114,1.872L71.022,5.3a16.387,16.387,0,0,1,12.933-.67,15.087,15.087,0,0,1,8.893,8.214c2.424,5.556,1.529,12.643-1.876,17.872,5.433-5.849,5.735-15.08,2.21-21.246" transform="translate(22.188 0.092)" fill="#fff"/>
      <path id="Path_4665" data-name="Path 4665" d="M33.875,8.715,31.626,18.924c-.1.479-.192.909-.271,1.317l.428.7.43.7,5.1,8.3.413.67.412.672L43.085,8.715Z" transform="translate(10.146 2.82)" fill="#fff"/>
      <path id="Path_4666" data-name="Path 4666" d="M39.55,31.37l-4.905-7.985-.528-.859-.466-.757v.005l-.025-.049L25.973,9.273l-.1.537-.154.788L23.67,21.073l-.163.831-.164.843c.445.774.952,1.6,1.541,2.507l6.651,10.139h8.253l.588-2.68-.413-.671Z" transform="translate(7.554 3.001)" fill="#fff"/>
      <path id="Path_4667" data-name="Path 4667" d="M28.111,9.262l.107-.547H19.133l-5.89,26.858H22.6l2.874-13.063c.1-.454.175-.871.236-1.255.013.026.029.056.044.083l.179-.92.187-.957L28,9.808Z" transform="translate(4.285 2.82)" fill="#fff"/>
      <path id="Path_4668" data-name="Path 4668" d="M68.185,8.715H45.947l-1.48,6.68H57.123L40.541,29.424,39.19,35.573H67.937l1.506-6.813H54.7L71.733,14.43l.421-1.879c.087-.312.185-.618.291-.92l-.11.11L73,8.761l.011-.046H68.185Z" transform="translate(12.682 2.82)" fill="#fff"/>
      <path id="Path_4669" data-name="Path 4669" d="M12.005,9c.451-.044.852-.065,1.177-.068A7.45,7.45,0,0,0,12.005,9" transform="translate(3.885 2.888)" fill="#003cf9"/>
      <path id="Path_4670" data-name="Path 4670" d="M13.69,9.117l-.012-.005.029.02-.017-.015" transform="translate(4.426 2.949)" fill="#003cf9"/>
      <path id="Path_4671" data-name="Path 4671" d="M7.008,10.686c-.11.057-.224.115-.328.173-.229.127-.443.257-.642.385l-.005.023c.217-.138.429-.257.642-.383.111-.065.224-.136.334-.2" transform="translate(1.952 3.458)" fill="#003cf9"/>
      <path id="Path_4672" data-name="Path 4672" d="M16.977,11.388,17.064,11l-.011,0,.086-.43.024-.017.106-.484-.078.254c0-.357-.1-.584-.386-.683a1.491,1.491,0,0,0-.547-.053,25.264,25.264,0,0,0-4.622,1.145A17.251,17.251,0,0,0,8.31,12.037a6.268,6.268,0,0,0-.646.4,2.02,2.02,0,0,0-.719.74l-.012.054h.02l-.152.634h0l-.033.148h0L2.187,35.293h9.477l5.153-23.187.016,0Z" transform="translate(0.708 3.101)" fill="#fff"/>
      <path id="Path_4673" data-name="Path 4673" d="M68.135,12.471l.2-.889.034-.154.627-2.846.033-.151.093-.422.633-.163.038-.009.246-.064,3.51-.9-1.358-.8L69.605,4.56l.109-1.709L69.9,0,66.476,3.031l-.246-.1-2.308-.915-.169-.068-1.525-.6.647,1.481,1.181,2.707-2.4,2.9-.516.623L62.724,8.9l2.965-.289,1.426,2.249.457.721.249.392Z" transform="translate(19.785 0)" fill="#f88400"/>
      <path id="Path_4674" data-name="Path 4674" d="M18.32.469,14.966,5.991,8.647.543,6.3,7.483,0,4.543s3.812,6.494,4.6,8.507c.647,1.657.991,4.263,2.907,3.766h0l.154-.634H7.64c-.847.019-1.546-.191-.136-1.285.046-.036.1-.073.155-.109l.083-.068c.025-.016.048-.026.073-.042.06-.042.113-.083.176-.124q.3-.195.642-.386c.1-.058.218-.115.328-.173s.208-.128.308-.183A17.483,17.483,0,0,1,15.89,11.73a7.3,7.3,0,0,1,1.178-.066l.091,0h.012c.038,0,.061.011.1.012.064.005.123.013.181.021a2.549,2.549,0,0,1,.255.034c.033.009.05.022.081.032l.032.013a1.3,1.3,0,0,1,.287.136l.012.005.017.016c.024.017.057.038.074.053a.868.868,0,0,1,.073.071v0c.492.5.1,1.032-.409,1.443l-.021.017-.086.43.009,0c1.062-.376,2.492-1.346,1.759-3.823A45.263,45.263,0,0,1,18.32.469" transform="translate(0 0.152)" fill="#f88400"/>
      <path id="Path_4675" data-name="Path 4675" d="M91.536,15.483A12.838,12.838,0,0,0,77.228,6.121a12.6,12.6,0,0,0-11.11,13.131,13.218,13.218,0,0,0,6.3,10.6l0,0,2.823,1.7,4.033-5.481-.248-.144-.341-.2h-.008a38.565,38.565,0,0,1-3.419-2.394,5.924,5.924,0,0,1-1.628-7.075A6.085,6.085,0,0,1,80.13,13c3.735.625,6.793,5.223,3.48,9.682-3.555,4.785-6.941,9.693-10.392,14.554-.639.9-1.268,1.82-1.944,2.807,2.733,0,5.216-.025,7.689.019a1.742,1.742,0,0,0,1.625-.884q4.574-6.617,9.2-13.195a11.941,11.941,0,0,0,1.744-10.5" transform="translate(21.393 1.939)" fill="#f88400"/>
    </g>
  </g>
</svg>
