<svg id="Group_46122" data-name="Group 46122" xmlns="http://www.w3.org/2000/svg" xmlns:xlink="http://www.w3.org/1999/xlink" width="21.781" height="24.878" viewBox="0 0 21.781 24.878">
  <defs>
    <clipPath id="clip-path">
      <rect id="Rectangle_6564" data-name="Rectangle 6564" width="21.781" height="24.878" fill="none"/>
    </clipPath>
  </defs>
  <g id="Group_7200" data-name="Group 7200" clip-path="url(#clip-path)">
    <path id="Path_5756" data-name="Path 5756" d="M50.2,6.812A11.278,11.278,0,0,0,38.645,1.533a12.76,12.76,0,0,0-2.956.906l-.067,1.109,1.453.8a9.706,9.706,0,0,1,7.66-.4A8.937,8.937,0,0,1,50,8.814,11.582,11.582,0,0,1,48.892,19.4,11.067,11.067,0,0,0,50.2,6.815" transform="translate(-29.8 -1.146)" fill="#a3aabe"/>
    <path id="Path_5757" data-name="Path 5757" d="M4.143,7.387l.114-.527.021-.091.372-1.685.019-.089.055-.25.374-.1H5.12l.146-.038,2.079-.533-.8-.472-1.53-.9L5.08,1.7l.1-1.7L3.16,1.8l-.146-.058L1.645,1.2l-.095-.04L.643.8l.383.877.7,1.6L.306,4.99,0,5.36l.938-.091L2.694,5.1l.844,1.331.27.427.147.228Z" transform="translate(0 0)" fill="#a3aabe"/>
    <path id="Path_5758" data-name="Path 5758" d="M31.532,29.992A6.3,6.3,0,0,1,37.58,34.56a1.3,1.3,0,0,0,.034.138,5.8,5.8,0,0,1-.843,5.068l-.01.015c-1.808,2.573-3.631,5.191-5.417,7.783-.571-.009-1.184-.014-1.965-.014.514-.725,1.03-1.457,1.53-2.168,1.393-1.977,2.833-4.021,4.295-5.99a4.813,4.813,0,0,0-2.853-7.836,4.942,4.942,0,0,0-.862-.076A4.885,4.885,0,0,0,27.1,34.188l-.018.038a4.816,4.816,0,0,0,1.323,5.752l.021.017c.419.328.851.645,1.293.946l-.849,1.154-.647-.389a6.517,6.517,0,0,1-3.1-5.221,6.176,6.176,0,0,1,5.428-6.415l.041-.006a6.373,6.373,0,0,1,.943-.071m0-1.307a7.653,7.653,0,0,0-1.138.085,7.465,7.465,0,0,0-6.581,7.778,7.829,7.829,0,0,0,3.731,6.275l1.673,1.006,2.389-3.246L31.46,40.5l-.2-.114a22.859,22.859,0,0,1-2.025-1.418,3.509,3.509,0,0,1-.964-4.19,3.6,3.6,0,0,1,3.853-1.932,3.506,3.506,0,0,1,2.058,5.735c-2.106,2.834-4.107,5.741-6.155,8.621-.379.534-.751,1.078-1.151,1.662.859,0,1.677,0,2.473,0,.7,0,1.393,0,2.081.016l.067,0a1.027,1.027,0,0,0,.9-.526q2.7-3.92,5.44-7.816a7.074,7.074,0,0,0,1.034-6.218h0a7.606,7.606,0,0,0-7.337-5.63" transform="translate(-19.914 -23.997)" fill="#f88400"/>
  </g>
</svg>
