<svg id="Group_46125" data-name="Group 46125" xmlns="http://www.w3.org/2000/svg" xmlns:xlink="http://www.w3.org/1999/xlink" width="21.208" height="26.279" viewBox="0 0 21.208 26.279">
  <defs>
    <clipPath id="clip-path">
      <rect id="Rectangle_5330" data-name="Rectangle 5330" width="21.208" height="26.279" fill="none"/>
    </clipPath>
  </defs>
  <g id="Group_6141" data-name="Group 6141" clip-path="url(#clip-path)">
    <path id="Path_5341" data-name="Path 5341" d="M9.279,2.085,8.328,0h4.519L11.92,2.074a10.671,10.671,0,0,1,8.316,6.179,10.267,10.267,0,0,1,.634,6.994A10.607,10.607,0,0,1,.146,14.423,10.458,10.458,0,0,1,2.1,6.312,10.707,10.707,0,0,1,9.279,2.085m1.342,5.249A5.3,5.3,0,1,0,15.9,12.67a5.287,5.287,0,0,0-5.281-5.337M2.261,8.474c-.261.841-.5,1.558-.69,2.289a.549.549,0,0,0,.311.438c.675.142,1.363.223,2.061.327.2-.58.4-1.1.546-1.638a.483.483,0,0,0-.21-.4c-.608-.331-1.236-.626-2.017-1.014M1.6,14.989c.831-.217,1.5-.378,2.161-.578a.487.487,0,0,0,.289-.354,8.58,8.58,0,0,0-.164-1.464c-.026-.125-.277-.273-.436-.289-.533-.052-1.073-.039-1.609-.07-.34-.02-.517.1-.482.456.073.727.152,1.454.241,2.3m15.536-.658,2.47.632c.082-.85.178-1.58.2-2.313,0-.138-.269-.4-.429-.411-2.016-.162-2.138-.044-2.243,2.092m-15.21,1.7L3.342,18.45l1.988-1.618L4.319,15.1l-2.394.937M17.237,19.16a13.309,13.309,0,0,0-1.711-1.515c-.682-.42-.9.529-1.427.685-.135.04-.321.379-.273.485.3.667.669,1.308,1.07,2.064l2.341-1.718m-4.264-.234c-.6.123-1.109.2-1.6.345a.6.6,0,0,0-.343.44,9.789,9.789,0,0,0,.094,1.672c.023.157.3.412.435.4a13.541,13.541,0,0,0,1.9-.391.54.54,0,0,0,.237-.475c-.2-.659-.467-1.3-.725-1.987M18.357,7.481,16.482,5.431,14.861,7.408l1.36,1.5,2.137-1.429M4.675,5.453,2.82,7.53l2.144,1.4,1.35-1.507L4.675,5.453M19.262,16.017c-.828-.328-1.487-.6-2.159-.84a.422.422,0,0,0-.38.135c-.3.487-.566,1-.86,1.524l2,1.582,1.4-2.4m-9.123,4.506c.058-1.181.058-1.181-.761-1.34-1.171-.227-1.195-.236-1.594.926-.439,1.278-.792,1.164.864,1.547,1.416.328,1.419.316,1.49-1.133M13.052,3.667c-.234.819-.437,1.459-.589,2.111a.546.546,0,0,0,.2.472,10.3,10.3,0,0,0,1.284.584.389.389,0,0,0,.352-.048c.432-.636.839-1.288,1.309-2.022l-2.551-1.1M5.559,4.791,6.933,6.926c1.911-.64,1.911-.64,1.4-2.456-.03-.108-.028-.259-.1-.315-.158-.123-.4-.318-.526-.271-.689.248-1.354.561-2.152.905M18.9,8.452c-.767.381-1.393.675-2,1.006a.489.489,0,0,0-.213.406,10.326,10.326,0,0,0,.442,1.336c.045.113.22.265.316.253.742-.1,1.479-.226,2.333-.365L18.9,8.452M7.505,18.634c-.5-.374-.916-.71-1.36-1a.484.484,0,0,0-.453-.007c-.529.5-1.028,1.035-1.622,1.646l2.235,1.621,1.2-2.255M11.584,5.966c.1-.663.218-1.3.284-1.941a1.534,1.534,0,0,0-.176-.558,2.038,2.038,0,0,0-.611.361,5.42,5.42,0,0,0-.486.973,7.556,7.556,0,0,0-.532-1.073.8.8,0,0,0-.544-.244c-.086-.007-.285.232-.272.34.092.723.227,1.441.345,2.142h1.992Z" transform="translate(0)" fill="#a3aabe"/>
    <path id="Path_5342" data-name="Path 5342" d="M31.49,169.172l-.356,1.019h8.727l-.383-1.032a13.334,13.334,0,0,1,1.339-.561.577.577,0,0,1,.474.271c.3.6.57,1.222.81,1.851.3.784-.089,1.34-.945,1.342q-5.667.013-11.335,0c-.883,0-1.244-.574-.915-1.406.223-.564.5-1.106.71-1.675.168-.461.411-.516.813-.3.331.179.684.319,1.061.491" transform="translate(-24.898 -145.789)" fill="#f88400"/>
    <path id="Path_5343" data-name="Path 5343" d="M65.756,82.783a1.987,1.987,0,1,1-.008-3.974,1.987,1.987,0,0,1,.008,3.974m.829-2.022c-.388-.261-.635-.558-.844-.534s-.411.356-.615.553c.216.211.408.546.655.592.18.034.432-.312.8-.611" transform="translate(-55.143 -68.164)" fill="#f88400"/>
  </g>
</svg>
