<svg xmlns="http://www.w3.org/2000/svg" xmlns:xlink="http://www.w3.org/1999/xlink" width="24.853" height="19.221" viewBox="0 0 24.853 19.221">
  <defs>
    <clipPath id="clip-path">
      <rect id="Rectangle_19034" data-name="Rectangle 19034" width="24.853" height="19.221" fill="none"/>
    </clipPath>
  </defs>
  <g id="Group_43867" data-name="Group 43867" transform="translate(-242 -360.512)">
    <g id="Group_43868" data-name="Group 43868" transform="translate(242 360.512)">
      <g id="Group_43867-2" data-name="Group 43867" clip-path="url(#clip-path)">
        <path id="Path_6026" data-name="Path 6026" d="M61.6,60.637a1.617,1.617,0,0,1,1.658,1.8,1.568,1.568,0,0,1-1.752,1.679,1.521,1.521,0,0,1-1.557-1.7A1.574,1.574,0,0,1,61.6,60.634" transform="translate(-51.733 -52.334)" fill="#f88400"/>
        <path id="Path_6027" data-name="Path 6027" d="M99.5,60.637a1.617,1.617,0,0,1,1.658,1.8A1.568,1.568,0,0,1,99.4,64.116a1.521,1.521,0,0,1-1.557-1.7A1.574,1.574,0,0,1,99.5,60.634" transform="translate(-84.445 -52.334)" fill="#a3aabe"/>
        <path id="Path_6028" data-name="Path 6028" d="M128.04,27.233h.012a.9.9,0,0,0,.862-.935.918.918,0,0,0-.286-.648.856.856,0,0,0-.623-.242.9.9,0,0,0-.843.915.942.942,0,0,0,.264.645.849.849,0,0,0,.614.267" transform="translate(-109.76 -21.929)" fill="#f88400"/>
        <path id="Path_6029" data-name="Path 6029" d="M128,49.178a.9.9,0,0,0-.843.915.941.941,0,0,0,.264.645.849.849,0,0,0,.614.267h.011a.9.9,0,0,0,.862-.935.917.917,0,0,0-.285-.648.854.854,0,0,0-.623-.242" transform="translate(-109.753 -42.448)" fill="#f88400"/>
        <path id="Path_6030" data-name="Path 6030" d="M138.586,37.571a.95.95,0,0,0-.665.284.849.849,0,0,0-.247.606.9.9,0,0,0,.923.862h.013a.918.918,0,0,0,.648-.285.854.854,0,0,0,.242-.623.889.889,0,0,0-.914-.843" transform="translate(-118.833 -32.429)" fill="#f88400"/>
        <path id="Path_6031" data-name="Path 6031" d="M117.923,38.412a.889.889,0,0,0-.914-.843.951.951,0,0,0-.665.284.85.85,0,0,0-.247.606.9.9,0,0,0,.923.862h.013a.918.918,0,0,0,.648-.285.854.854,0,0,0,.242-.623" transform="translate(-100.21 -32.428)" fill="#f88400"/>
        <path id="Path_6032" data-name="Path 6032" d="M34.854,27.385h-1v-1a.757.757,0,0,0-1.513,0v1h-1a.757.757,0,0,0,0,1.513h1v1a.758.758,0,0,0,.757.757h0a.758.758,0,0,0,.757-.757v-1h1a.757.757,0,1,0,0-1.513" transform="translate(-26.405 -22.125)" fill="#a3aabe"/>
        <path id="Path_6033" data-name="Path 6033" d="M24.81,13.253a30.09,30.09,0,0,0-2.529-9.838C20.965.5,19.731.165,16.791,0c-.219-.013-.818.117-.886.491-.086.477-.281.466-.749.439h-.024c-.089,0-.171-.009-.256-.009-.848,0-1.658.006-2.45.007s-1.6,0-2.45-.007c-.085,0-.167,0-.256.009H9.7c-.468.026-.663.038-.749-.439C8.881.117,8.281-.013,8.062,0c-2.94.164-4.174.5-5.49,3.415A30.09,30.09,0,0,0,.044,13.253a10.85,10.85,0,0,0,.393,4.018,2.634,2.634,0,0,0,1.731,1.866,2.789,2.789,0,0,0,2.594-.678A6.56,6.56,0,0,0,5.88,17.134c.375-.554.717-1.139,1.049-1.7l.239-.406a1.394,1.394,0,0,1,1.38-.769c.909.031,1.837.025,2.734.019h.059c.362,0,.723,0,1.086,0s.724,0,1.086,0h.059c.9.006,1.824.012,2.734-.019a1.394,1.394,0,0,1,1.381.769l.239.406c.332.566.674,1.15,1.049,1.7a6.56,6.56,0,0,0,1.118,1.325,2.789,2.789,0,0,0,2.594.678,2.634,2.634,0,0,0,1.731-1.866,10.847,10.847,0,0,0,.393-4.018M23.1,16.814a1.425,1.425,0,0,1-.9.922,1.348,1.348,0,0,1-1.17-.38,5.765,5.765,0,0,1-.985-1.2c-.272-.4-.53-.824-.78-1.234l-.142-.233c-.139-.229-.279-.458-.421-.686a2.41,2.41,0,0,0-2.186-1.18c-1.447.011-2.8.017-4.09.017s-2.643-.006-4.09-.017a2.41,2.41,0,0,0-2.186,1.18c-.143.227-.282.456-.421.686l-.142.233c-.249.41-.507.835-.78,1.234a5.765,5.765,0,0,1-.985,1.2,1.348,1.348,0,0,1-1.17.38,1.425,1.425,0,0,1-.9-.922,4.569,4.569,0,0,1-.378-1.785A27.262,27.262,0,0,1,4.366,3.086,3.221,3.221,0,0,1,7.607,1.5h0l.159.024.015.025A1.8,1.8,0,0,0,9.7,2.37c.142-.012.268-.012.389-.012h.3c.643.006,1.3.011,1.951.013h.162c.655,0,1.308-.007,1.951-.013h.3c.121,0,.247,0,.389.012a1.8,1.8,0,0,0,1.923-.818l.015-.025.159-.024h0a3.221,3.221,0,0,1,3.241,1.583,27.262,27.262,0,0,1,2.986,11.943,4.569,4.569,0,0,1-.378,1.785" transform="translate(0 0)" fill="#a3aabe"/>
      </g>
    </g>
  </g>
</svg>
