<svg id="Group_43853" data-name="Group 43853" xmlns="http://www.w3.org/2000/svg" xmlns:xlink="http://www.w3.org/1999/xlink" width="36.019" height="36.025" viewBox="0 0 36.019 36.025">
  <defs>
    <clipPath id="clip-path">
      <rect id="Rectangle_6570" data-name="Rectangle 6570" width="36.019" height="36.025" transform="translate(0 0)" fill="none"/>
    </clipPath>
  </defs>
  <g id="Group_7223" data-name="Group 7223" clip-path="url(#clip-path)">
    <path id="Path_5767" data-name="Path 5767" d="M34.069,18.037A16.06,16.06,0,1,1,18.01,1.977a16.059,16.059,0,0,1,16.059,16.06" fill="#239cd6"/>
    <path id="Path_5768" data-name="Path 5768" d="M25.883,10.028a6.38,6.38,0,0,0-.869.248c-6.154,2.208-12.257,4.547-18.253,7.161a2.9,2.9,0,0,0-.729.392.636.636,0,0,0-.024,1.062,1.924,1.924,0,0,0,.729.384c1.206.4,2.43.747,3.616,1.2a1.737,1.737,0,0,0,1.763-.214C15.54,18.028,19,15.849,22.447,13.652a1.716,1.716,0,0,1,.336-.178c.1-.037.235-.072.311.041a.3.3,0,0,1-.013.324,1,1,0,0,1-.2.226c-2.328,2.039-4.589,4.152-6.943,6.161a6.6,6.6,0,0,0-2.319,3.788,17.8,17.8,0,0,0-.252,2.437v.34c0,.429.115.507.521.334a2.544,2.544,0,0,0,.775-.53q1-.974,1.984-1.965a.391.391,0,0,1,.544-.093.386.386,0,0,1,.07.064c.618.5,1.252.972,1.882,1.453.83.633,1.645,1.289,2.5,1.888a1.134,1.134,0,0,0,1.792-.668c.05-.168.092-.34.131-.511,1-4.452,1.887-8.929,2.772-13.405a18.075,18.075,0,0,0,.407-2.607c.029-.581-.29-.839-.859-.723" fill="#fdfdfd"/>
    <path id="Path_5769" data-name="Path 5769" d="M36.019,18.627l-.025-1.777-.011-.147-.007-.1a.51.51,0,0,1-.042-.362.927.927,0,0,1-.029-.374l-.412-2.275a3.77,3.77,0,0,1-.3-1.077l-.435-1.186-.052-.142-.021-.058a4.713,4.713,0,0,1-.379-.815l-.034-.086-.285-.551-.2-.389a1.023,1.023,0,0,1-.231-.411,4.331,4.331,0,0,1-.474-.75,26.172,26.172,0,0,0-1.871-2.354A21.023,21.023,0,0,0,27.98,2.995a3.146,3.146,0,0,1-.7-.451.881.881,0,0,1-.376-.218l-.328-.172L25.884,1.8l-.022-.009a4.445,4.445,0,0,1-.792-.367.818.818,0,0,1-.338-.136L23.609.876,23.576.864a5.248,5.248,0,0,1-1.07-.312,2.633,2.633,0,0,1-.732-.174A.97.97,0,0,1,21.4.3,6.987,6.987,0,0,1,20.2.125L19.69.076l-.518-.05-.931-.02L17.915,0a3.549,3.549,0,0,1-.535.04c-.123,0-.252-.006-.386-.017l-1.167.1a3.312,3.312,0,0,1-.844.14L14.764.28l-2.29.572a6.249,6.249,0,0,1-1.07.389l-1.178.56-1.033.491a.682.682,0,0,1-.318.184,5.772,5.772,0,0,1-.822.514,6.867,6.867,0,0,1-.879.626.364.364,0,0,1-.193.138l-.422.357-.678.574-.038.036L5.8,4.762,4.757,5.807l-.071.075-.316.375-.555.657a.628.628,0,0,1-.2.256,6.941,6.941,0,0,1-.629.884,5.782,5.782,0,0,1-.514.823.682.682,0,0,1-.184.318l-.106.222-.945,1.989a6.249,6.249,0,0,1-.389,1.07L.292,14.72l-.01.041a4.824,4.824,0,0,1-.158,1.061L.023,17A3.811,3.811,0,0,1,0,17.918l.027,1.25v.007l.1,1.031A6.972,6.972,0,0,1,.3,21.4a.755.755,0,0,1,.067.317,3.13,3.13,0,0,1,.183.793,5.318,5.318,0,0,1,.314,1.07l.289.8.131.359a.817.817,0,0,1,.136.339,4.656,4.656,0,0,1,.376.814l.112.215.419.8a.908.908,0,0,1,.216.374,3.206,3.206,0,0,1,.451.7l.157.209A25.343,25.343,0,0,0,4.8,30.239a20.693,20.693,0,0,0,3.324,2.845,4.285,4.285,0,0,1,.751.475,1,1,0,0,1,.412.232l.142.073.8.412.1.037a4.615,4.615,0,0,1,.806.376l.125.046.075.027,1.2.44,1.046.294,1.917.347.378.068a.89.89,0,0,1,.373.029.571.571,0,0,1,.13-.016.493.493,0,0,1,.232.058l.248.018.9.013.889.012h.011a1.615,1.615,0,0,1,.294-.034.85.85,0,0,1,.174.018l1.3-.131a.983.983,0,0,1,.34-.057h.077l.439-.1c.782-.173,1.59-.352,2.369-.578a7.064,7.064,0,0,1,1.055-.381l.639-.311,1.681-.818.127-.065a6.441,6.441,0,0,1,.917-.589l.394-.278.24-.17a1.468,1.468,0,0,1,.421-.313l.527-.447.508-.43.027-.026.054-.051.831-.832.209-.209.023-.025.055-.059.866-1.024a.91.91,0,0,1,.252-.334,5.084,5.084,0,0,1,.577-.812,4.394,4.394,0,0,1,.523-.83l.068-.132.657-1.35.47-.966a6.927,6.927,0,0,1,.381-1.056c.193-.652.344-1.33.489-1.986.061-.274.122-.549.186-.823a1.013,1.013,0,0,1,.054-.416l.025-.244L36,19.118a1.13,1.13,0,0,1,.018-.491m-2.53-.194a3.648,3.648,0,0,0-.027.677v.034l-.052.513-.029.283v.026a3.515,3.515,0,0,0-.079.54v.033c-.044.192-.086.382-.127.567-.131.589-.253,1.142-.4,1.665v.013l0,.012a9.732,9.732,0,0,0-.359.98l-.005.016-.007.015-.965,1.984-.008.017-.011.015a6.842,6.842,0,0,0-.474.741l-.009.016-.011.014c-.156.2-.305.408-.444.626l-.008.013-.01.012a3.458,3.458,0,0,0-.307.416l-.008.013-.01.012-.392.463-.266.315-.006.007-.006.006-.976.977-.006.006-.007.006-.608.514-.181.153-.012.01-.013.008a4.023,4.023,0,0,0-.559.423l-.01.009-.01.007-.146.1-.194.137-.009.007-.01.006a8.908,8.908,0,0,0-.887.563l-.015.011-.017.008-1.983.965-.015.007h-.016a9.679,9.679,0,0,0-.973.356l-.013.005H22.79c-.652.182-1.331.332-2.05.492l-.163.036h-.043a3.6,3.6,0,0,0-.556.08h-.026l-.794.08h-.212a3.587,3.587,0,0,0-.475.032H18.44l-1.363-.019h-.044a3.055,3.055,0,0,0-.66-.073H16.35c-.093-.01-.187-.016-.28-.019h-.033l-.173-.031-1.717-.311h-.02L13.31,32.8h-.016l-1.077-.4H12.2l-.014-.008a7.739,7.739,0,0,0-.91-.41h-.01l-.01-.005-.588-.3-.014-.007-.012-.009a3.559,3.559,0,0,0-.515-.3l-.015-.007-.014-.01a6.82,6.82,0,0,0-.643-.393l-.012-.007-.011-.008a17.9,17.9,0,0,1-2.784-2.4A23.2,23.2,0,0,1,5.169,26.69l-.017-.023-.01-.013-.008-.014A5.867,5.867,0,0,0,4.745,26l-.01-.013-.007-.014a3.362,3.362,0,0,0-.269-.44l-.009-.012L4.444,25.5l-.338-.647-.006-.01v-.011a7.145,7.145,0,0,0-.323-.727l-.007-.013,0-.014a3.206,3.206,0,0,0-.171-.4l-.006-.012v-.012L3.3,22.9v-.027a7.9,7.9,0,0,0-.282-1l-.007-.018v-.019a5.257,5.257,0,0,0-.154-.668v-.025c-.012-.067-.026-.133-.042-.2v-.03a9.623,9.623,0,0,0-.17-1.082V19.8l-.014-.149-.059-.616V19.02l-.02-.952V18.04a6.285,6.285,0,0,0,.026-1.008V17l0-.062.059-.689v-.03A7.4,7.4,0,0,0,2.8,15.161v-.035l.45-1.8v-.017l.007-.016a8.95,8.95,0,0,0,.355-.98V12.3l.007-.015.819-1.724.007-.016.01-.014a3.1,3.1,0,0,0,.243-.417l.007-.014.009-.013A7.222,7.222,0,0,0,5.1,9.466l.008-.015.01-.013c.182-.232.342-.456.491-.685l.008-.012.009-.011a3.131,3.131,0,0,0,.262-.353L5.9,8.365l0-.011L6.116,8.1l.448-.531.006-.007.006-.006.981-.982.006-.006.007-.006.53-.45.3-.255.011-.009.012-.008a2.85,2.85,0,0,0,.276-.2l.009-.008.01-.007c.239-.154.473-.321.713-.509l.013-.01L9.466,5.1c.206-.115.414-.244.618-.383l.013-.009.014-.007a3.215,3.215,0,0,0,.417-.243l.014-.01.016-.007.8-.379.927-.441.015-.007h.016a8.918,8.918,0,0,0,.978-.355l.016-.007h.017l1.81-.452.025-.006H15.2a6.225,6.225,0,0,0,1.079-.157h.033L17,2.556h.029c.118.006.236.009.35.009a6.291,6.291,0,0,0,.658-.035h.028l.953.02h.016l.765.073h.024A9.787,9.787,0,0,0,20.9,2.8h.031c.088.022.179.04.269.055h.028A5.043,5.043,0,0,0,21.835,3h.018L21.871,3a7.9,7.9,0,0,0,1,.281h.014L22.9,3.3l.757.275h.012l.012.006a3.342,3.342,0,0,0,.394.17h.014l.013.007a7.415,7.415,0,0,0,.729.324h.011l.01.005.644.336.014.007.013.009a3.361,3.361,0,0,0,.444.272l.014.007.013.01a5.784,5.784,0,0,0,.65.4l.014.007.012.009a18.1,18.1,0,0,1,2.685,2.321,22.222,22.222,0,0,1,1.57,1.97l.009.012.007.013a6.858,6.858,0,0,0,.383.624l.01.014.007.015a3.5,3.5,0,0,0,.3.512l.009.012.007.014.3.589,0,.01v.011a7.827,7.827,0,0,0,.41.911l.008.014,0,.015.343.934.006.017v.018a6.25,6.25,0,0,0,.306,1.116l.007.019v.02l.308,1.7v.032a2.464,2.464,0,0,0,.017.258v.023a3,3,0,0,0,.075.687l.005.022v.023l.018,1.314V18.4Z" fill="#fdfdfd"/>
  </g>
</svg>