<svg id="Group_43854" data-name="Group 43854" xmlns="http://www.w3.org/2000/svg" xmlns:xlink="http://www.w3.org/1999/xlink" width="36.02" height="36.026" viewBox="0 0 36.02 36.026">
  <defs>
    <clipPath id="clip-path">
      <rect id="Rectangle_19027" data-name="Rectangle 19027" width="36.02" height="36.026" fill="none"/>
    </clipPath>
  </defs>
  <g id="Group_43857" data-name="Group 43857" clip-path="url(#clip-path)">
    <path id="Path_6022" data-name="Path 6022" d="M42.3,26.254a16.06,16.06,0,1,1-16.06-16.06h0A16.059,16.059,0,0,1,42.3,26.254h0" transform="translate(-8.228 -8.241)" fill="#2dc100"/>
    <path id="Path_6023" data-name="Path 6023" d="M36.02,18.629,36,16.851l-.011-.147-.007-.1a.51.51,0,0,1-.042-.362.928.928,0,0,1-.029-.374l-.412-2.275a3.763,3.763,0,0,1-.3-1.077l-.435-1.186-.052-.142-.021-.058a4.7,4.7,0,0,1-.379-.815l-.034-.086-.285-.551-.2-.389a1.02,1.02,0,0,1-.231-.411,4.334,4.334,0,0,1-.474-.75,26.188,26.188,0,0,0-1.871-2.354A21.014,21.014,0,0,0,27.981,3a3.156,3.156,0,0,1-.7-.451.883.883,0,0,1-.376-.218l-.328-.172L25.885,1.8l-.022-.009a4.434,4.434,0,0,1-.792-.367.816.816,0,0,1-.338-.136L23.61.877,23.577.865a5.267,5.267,0,0,1-1.07-.312,2.64,2.64,0,0,1-.732-.174A.969.969,0,0,1,21.4.3,6.971,6.971,0,0,1,20.2.126l-.51-.049-.518-.05-.931-.02L17.916,0a3.576,3.576,0,0,1-.535.04c-.123,0-.252-.006-.386-.017l-1.167.1a3.312,3.312,0,0,1-.844.14l-.219.017-2.29.572a6.246,6.246,0,0,1-1.07.389l-1.178.56-1.033.491a.681.681,0,0,1-.318.184,5.762,5.762,0,0,1-.822.514,6.856,6.856,0,0,1-.879.626.364.364,0,0,1-.193.138l-.422.357-.678.574-.038.036L5.8,4.763,4.757,5.808l-.071.075-.316.375-.555.657a.629.629,0,0,1-.2.256,6.948,6.948,0,0,1-.629.884,5.79,5.79,0,0,1-.514.823.681.681,0,0,1-.184.318l-.106.222-.945,1.989a6.237,6.237,0,0,1-.389,1.07L.292,14.721l-.01.041a4.823,4.823,0,0,1-.158,1.061L.023,17A3.815,3.815,0,0,1,0,17.919l.027,1.25v.007l.1,1.031A6.956,6.956,0,0,1,.3,21.4a.753.753,0,0,1,.067.317,3.131,3.131,0,0,1,.183.793,5.312,5.312,0,0,1,.314,1.07l.289.8.131.359a.818.818,0,0,1,.136.339,4.671,4.671,0,0,1,.376.814l.112.215.419.8a.907.907,0,0,1,.216.374,3.2,3.2,0,0,1,.451.7l.157.209A25.36,25.36,0,0,0,4.8,30.241a20.7,20.7,0,0,0,3.324,2.845,4.264,4.264,0,0,1,.751.475,1,1,0,0,1,.412.232l.142.073.8.412.1.037a4.611,4.611,0,0,1,.806.376l.125.046.075.027,1.2.44,1.046.294,1.917.347.378.068a.891.891,0,0,1,.373.029.571.571,0,0,1,.13-.016.493.493,0,0,1,.232.058l.248.018.9.013.889.012h.011a1.614,1.614,0,0,1,.294-.034.845.845,0,0,1,.174.018l1.3-.131a.983.983,0,0,1,.34-.057h.077l.439-.1c.782-.173,1.59-.352,2.369-.578a7.07,7.07,0,0,1,1.055-.381l.639-.311,1.681-.818.127-.065a6.433,6.433,0,0,1,.917-.589l.394-.278.24-.17a1.472,1.472,0,0,1,.421-.313l.527-.447.508-.43.027-.026.054-.051.831-.832.209-.209.023-.025.055-.059.866-1.024a.91.91,0,0,1,.252-.334,5.084,5.084,0,0,1,.577-.812,4.4,4.4,0,0,1,.523-.83l.068-.132.657-1.35.47-.966a6.923,6.923,0,0,1,.381-1.056c.193-.652.344-1.33.489-1.986.061-.274.122-.549.186-.823a1.016,1.016,0,0,1,.054-.416l.025-.244L36,19.119a1.13,1.13,0,0,1,.018-.491m-2.53-.194a3.637,3.637,0,0,0-.027.677v.034l-.052.513-.029.283v.026a3.515,3.515,0,0,0-.079.54v.033c-.044.192-.086.382-.127.567-.131.589-.253,1.142-.4,1.665V22.8a9.736,9.736,0,0,0-.359.98l0,.016-.007.015-.965,1.984-.008.017-.011.015a6.827,6.827,0,0,0-.474.741l-.009.016-.011.014c-.156.2-.305.408-.444.626l-.008.013-.01.012a3.446,3.446,0,0,0-.307.416l-.008.013-.01.012-.392.463-.266.315-.006.007-.006.006-.976.977-.006.006-.007.006-.608.514-.181.153-.012.01-.013.008a4.015,4.015,0,0,0-.559.423l-.01.009-.01.007-.146.1-.194.137-.009.007-.01.006a8.907,8.907,0,0,0-.887.563l-.015.011-.017.008-1.983.965-.015.007h-.016a9.7,9.7,0,0,0-.973.356l-.013,0h-.018c-.652.182-1.331.332-2.05.492l-.163.036h-.043a3.6,3.6,0,0,0-.556.08h-.026l-.794.08h-.212a3.581,3.581,0,0,0-.475.032h-.031l-1.363-.019h-.044a3.049,3.049,0,0,0-.66-.073H16.35c-.093-.01-.187-.016-.28-.019h-.033l-.173-.031-1.717-.311h-.02L13.31,32.8h-.016l-1.077-.4H12.2l-.014-.008a7.756,7.756,0,0,0-.91-.41h-.01l-.01,0-.588-.3-.014-.007-.012-.009a3.572,3.572,0,0,0-.515-.3l-.015-.007-.014-.01a6.841,6.841,0,0,0-.643-.393l-.012-.007-.011-.008a17.9,17.9,0,0,1-2.784-2.4,23.246,23.246,0,0,1-1.479-1.846l-.017-.023-.01-.013-.008-.014A5.858,5.858,0,0,0,4.745,26l-.01-.013-.007-.014a3.387,3.387,0,0,0-.269-.44l-.009-.012L4.444,25.5l-.338-.647-.006-.01v-.011a7.138,7.138,0,0,0-.323-.727l-.007-.013V24.08a3.2,3.2,0,0,0-.171-.4l-.006-.012v-.012L3.3,22.9v-.027a7.9,7.9,0,0,0-.282-1l-.007-.018v-.019a5.25,5.25,0,0,0-.154-.668v-.025c-.012-.067-.026-.133-.042-.2v-.03a9.606,9.606,0,0,0-.17-1.082V19.8l-.014-.149-.059-.616v-.015l-.02-.952v-.028a6.306,6.306,0,0,0,.026-1.008V16.94l.059-.689v-.03A7.424,7.424,0,0,0,2.8,15.162v-.035l.45-1.8V13.31l.007-.016a8.98,8.98,0,0,0,.355-.98V12.3l.007-.015.819-1.724.007-.016.01-.014a3.115,3.115,0,0,0,.243-.417l.007-.014.009-.013A7.22,7.22,0,0,0,5.1,9.467l.008-.015.01-.013c.182-.232.342-.456.491-.685l.008-.012.009-.011a3.135,3.135,0,0,0,.262-.353L5.9,8.366V8.355L6.116,8.1l.448-.531.006-.007.006-.006.981-.982.006-.006.007-.006.53-.45.3-.255.011-.009.012-.008a2.826,2.826,0,0,0,.276-.2l.009-.008.01-.007c.239-.154.473-.321.713-.509l.013-.01L9.466,5.1c.206-.115.414-.244.618-.383l.013-.009.014-.007a3.212,3.212,0,0,0,.417-.243l.014-.01.016-.007.8-.379.927-.441.015-.007h.016a8.912,8.912,0,0,0,.978-.355l.016-.007h.017l1.81-.452.025-.006H15.2a6.216,6.216,0,0,0,1.079-.157h.033L17,2.557h.029c.118.006.236.009.35.009a6.3,6.3,0,0,0,.658-.035h.028l.953.02h.016l.765.073h.024A9.753,9.753,0,0,0,20.9,2.8h.031c.088.022.179.04.269.055h.028A5.076,5.076,0,0,0,21.836,3h.036a7.9,7.9,0,0,0,1,.281h.014L22.9,3.3l.757.275h.012l.012.006a3.347,3.347,0,0,0,.394.17h.014l.013.007a7.391,7.391,0,0,0,.729.324h.011l.01,0,.644.336.014.007.013.009a3.384,3.384,0,0,0,.444.272l.014.007.013.01a5.769,5.769,0,0,0,.65.4l.014.007.012.009a18.118,18.118,0,0,1,2.685,2.321,22.257,22.257,0,0,1,1.57,1.97l.009.012.007.013a6.864,6.864,0,0,0,.383.624l.01.014.007.015a3.5,3.5,0,0,0,.3.512l.009.012.007.014.3.589v.021a7.8,7.8,0,0,0,.41.911l.008.014V12.2l.343.934.006.017v.018a6.244,6.244,0,0,0,.306,1.116l.007.019v.02l.308,1.7v.032a2.471,2.471,0,0,0,.017.258v.023a2.993,2.993,0,0,0,.075.687l0,.022v.023l.018,1.314V18.4Z" transform="translate(0 -0.001)" fill="#fdfdfd"/>
    <path id="Path_6024" data-name="Path 6024" d="M45.459,45.672l.247-.013c.469-.015.936-.035,1.406,0,.407.027.807.1,1.212.136l0,0c.03.045.075.039.119.034a3.464,3.464,0,0,0,.485.1.165.165,0,0,0,.136.042l0,0,1,.358c.091.03.167.1.269.1a1.745,1.745,0,0,0,.475.241l.831.513a.111.111,0,0,0,.089.065l.745.616a.786.786,0,0,0,.217.213l.61.716a.134.134,0,0,0,.084.116l.014.042.028.043.453.748a2.259,2.259,0,0,0,.244.554.5.5,0,0,0,.09.275.8.8,0,0,0,.013.122c.08.3.081.3-.218.3l-.209-.009a5.081,5.081,0,0,0-1.371,0,2.936,2.936,0,0,0-.787.089,6.564,6.564,0,0,0-1.741.454,3.7,3.7,0,0,0-.71.3l-.046.032v0a2.743,2.743,0,0,0-.7.379.2.2,0,0,0-.129.082,5.354,5.354,0,0,0-1.114.837,5.827,5.827,0,0,0-1.247,1.572.554.554,0,0,0-.139.27,1.818,1.818,0,0,0-.289.639l0,0-.028.048a2.565,2.565,0,0,0-.183.656,3.311,3.311,0,0,0-.145.92,3.867,3.867,0,0,0,0,.666,2.778,2.778,0,0,0,.069.588c.033.292.034.292-.249.289l-.991-.232a1.036,1.036,0,0,0-.212-.075c-.182-.024-.344-.2-.545-.075l-1.488.636a8.307,8.307,0,0,0-.914.4c-.1-.025-.171.115-.285.061.07-.232.228-.414.284-.642a4.266,4.266,0,0,0,.417-.83,3.087,3.087,0,0,0,.218-.394c.08-.122.056-.194-.07-.281a7.5,7.5,0,0,1-1.076-.891c-.284-.289-.525-.613-.785-.922a4.292,4.292,0,0,0-.364-.591.627.627,0,0,0-.116-.244l-.313-.825a10.355,10.355,0,0,1-.237-1.246q0-.208-.007-.415a8.518,8.518,0,0,1,.079-.872l.175-.79.335-.828a.294.294,0,0,0,.092-.189,5.147,5.147,0,0,0,.4-.642l.418-.535a1.49,1.49,0,0,0,.279-.3l.546-.5a1.972,1.972,0,0,0,.394-.316l.441-.295a12.453,12.453,0,0,1,1.744-.834l.744-.218,1.289-.239m-.625,3.936a.995.995,0,1,0-.994,1,.992.992,0,0,0,.994-1m5.314,0a.995.995,0,1,0-.993,1,.992.992,0,0,0,.993-1" transform="translate(-31.141 -36.898)" fill="#fdfdfd"/>
    <path id="Path_6025" data-name="Path 6025" d="M90.3,91.451a6.718,6.718,0,0,0-.829-.344.267.267,0,0,0-.2-.084,2.272,2.272,0,0,0-.582-.253.2.2,0,0,0-.2-.069c-.267.051-.533.1-.8.157l-.165.009c-.331-.025-.659.038-.992.023a10.6,10.6,0,0,1-2.04-.312l-.008-.005c-.026-.047-.07-.042-.114-.04l-.614-.218-.051-.028-.043-.007a.275.275,0,0,0-.2-.087,3.923,3.923,0,0,0-.63-.335c-.238-.172-.481-.336-.711-.517A5.987,5.987,0,0,1,80.7,87.705a8.036,8.036,0,0,1-.35-.865c-.062-.266-.119-.532-.178-.8l-.005-.827.089-.573a.231.231,0,0,0,.046-.171l0,0a.149.149,0,0,0,.029-.133l.289-.71a5.879,5.879,0,0,1,1.2-1.556c.309-.285.665-.507,1-.759a1.884,1.884,0,0,0,.461-.252,1.013,1.013,0,0,0,.368-.169l.042-.007.047-.028,0,0a.1.1,0,0,0,.09-.042,3.523,3.523,0,0,0,.53-.18l.954-.246c.24.005.469-.074.706-.088l.12-.01a10.8,10.8,0,0,1,1.334,0l.121.008.574.073.466.092.825.234.836.349a.046.046,0,0,0,.036.011l.786.461v0l.047.039.427.326a2.1,2.1,0,0,0,.365.33l.46.5.371.533.168.3.333.831c0,.014,0,.028,0,.042a.106.106,0,0,0,.036.114l0,.008a.135.135,0,0,0,.032.127,2.672,2.672,0,0,0,.085.539q0,.377,0,.753l-.188.906-.359.829a.5.5,0,0,0-.12.209l-.456.623a3.178,3.178,0,0,0-.377.409,2.846,2.846,0,0,0-.473.411,1.666,1.666,0,0,0-.355.258c-.083.059-.272.063-.2.214.189.407.408.8.616,1.2a4.546,4.546,0,0,0,.416.832h0c.034.082.063.165.1.245s0,.083-.059.085L90.5,91.53c-.068-.03-.139-.053-.208-.079m-.5-7.188a.995.995,0,1,0-1,.99.991.991,0,0,0,1-.99m-3.985,0a.995.995,0,1,0-1,.993.991.991,0,0,0,1-.993" transform="translate(-64.812 -64.902)" fill="#fdfdfd"/>
  </g>
</svg>