<svg id="Group_43851" data-name="Group 43851" xmlns="http://www.w3.org/2000/svg" xmlns:xlink="http://www.w3.org/1999/xlink" width="35.794" height="36.177" viewBox="0 0 35.794 36.177">
  <defs>
    <clipPath id="clip-path">
      <rect id="Rectangle_6569" data-name="Rectangle 6569" width="35.794" height="36.177" transform="translate(0 0)" fill="none"/>
    </clipPath>
  </defs>
  <g id="Group_7221" data-name="Group 7221" clip-path="url(#clip-path)">
    <path id="Path_5764" data-name="Path 5764" d="M17.886,2.052A16.021,16.021,0,0,0,2.8,23.577l-.154.389L3.47,27.8l-.823,5.756,7.572-1.324A16.061,16.061,0,1,0,17.886,2.052" fill="#29a71a"/>
    <path id="Path_5765" data-name="Path 5765" d="M35.752,16.9A17.8,17.8,0,0,0,17.961.213v0a18.2,18.2,0,0,0-2.087.12A17.617,17.617,0,0,0,7.686,3.417,18.057,18.057,0,0,0,.044,17.758a17.809,17.809,0,0,0,2.006,8.6,2.416,2.416,0,0,1,.172,1.59c-.541,2.114-1.111,4.185-1.715,6.378Q.256,35.245,0,36.177c.167-.032.3-.059.43-.092l1.653-.431C4.145,35.116,6.277,34.561,8.368,34a2.728,2.728,0,0,1,.718-.1,2.144,2.144,0,0,1,.989.248,16.845,16.845,0,0,0,5.861,1.713,18.669,18.669,0,0,0,2.006.109A17.839,17.839,0,0,0,35.794,18.139c0-.413-.014-.827-.042-1.239M26.413,30.735a14.769,14.769,0,0,1-8.345,2.7,16.684,16.684,0,0,1-7.835-2.123A1.847,1.847,0,0,0,9.4,31.13a1.706,1.706,0,0,0-.377.039c-1.167.26-2.319.565-3.539.889-.465.123-.938.249-1.423.375l-.358.093.1-.357c.13-.479.26-.945.387-1.4.329-1.183.64-2.3.9-3.427a1.786,1.786,0,0,0-.165-1.184,15.32,15.32,0,0,1,9.74-23,14.92,14.92,0,0,1,3.316-.374A15.177,15.177,0,0,1,33.012,15.881a14.6,14.6,0,0,1-6.6,14.854" fill="#fdfdfd"/>
    <path id="Path_5766" data-name="Path 5766" d="M26.48,22.052c-.892-.522-1.85-.935-2.79-1.374-1.187-.554-1.188-.546-1.984.461-.268.339-.578.649-.822,1a.985.985,0,0,1-1.345.364c-.023-.014-.047-.028-.069-.044a12.5,12.5,0,0,1-5.056-3.947c-1.192-1.586-1.219-1.6-.023-3.183a1.61,1.61,0,0,0,.233-1.9c-.412-.822-.719-1.7-1.071-2.548a1.866,1.866,0,0,0-3.059-.7,7.222,7.222,0,0,0-1.583,2.7c-.558,1.806.146,3.469,1.1,4.992a21.9,21.9,0,0,0,5.153,5.789,15.256,15.256,0,0,0,7.073,3.112c2.924.009,4.838-1.579,4.821-3.738a1.363,1.363,0,0,0-.581-.989" fill="#fdfdfd"/>
  </g>
</svg>